<svg width="310" height="244" viewBox="0 0 310 244" xmlns="http://www.w3.org/2000/svg" shape-rendering="crispEdges">
  <path d="M 145,75 L 145,82 L 144,83 L 137,83 L 137,88 L 136,89 L 127,89 L 126,90 L 126,112 L 127,113 L 126,114 L 126,115 L 125,116 L 118,116 L 118,141 L 125,141 L 126,142 L 126,148 L 124,150 L 107,150 L 107,155 L 106,156 L 99,156 L 99,163 L 98,164 L 91,164 L 91,175 L 89,177 L 80,177 L 80,182 L 79,183 L 61,183 L 59,181 L 59,156 L 52,156 L 51,155 L 51,150 L 43,150 L 43,154 L 41,156 L 34,156 L 34,187 L 41,187 L 43,189 L 43,196 L 52,196 L 53,197 L 53,202 L 79,202 L 80,203 L 80,208 L 89,208 L 91,210 L 91,215 L 90,216 L 89,216 L 88,217 L 5,217 L 5,220 L 86,220 L 87,221 L 86,222 L 83,222 L 83,223 L 82,224 L 81,223 L 80,223 L 79,222 L 77,224 L 75,222 L 74,222 L 73,223 L 72,223 L 71,222 L 70,222 L 69,223 L 68,223 L 67,222 L 22,222 L 21,223 L 20,223 L 19,222 L 6,222 L 6,224 L 5,225 L 5,231 L 300,231 L 300,226 L 299,225 L 299,223 L 138,223 L 137,222 L 138,221 L 158,221 L 159,220 L 160,220 L 161,221 L 162,220 L 163,221 L 171,221 L 172,220 L 174,220 L 175,221 L 200,221 L 201,220 L 203,220 L 204,221 L 208,221 L 209,220 L 210,220 L 211,221 L 299,221 L 299,219 L 300,218 L 300,217 L 202,217 L 201,216 L 200,216 L 199,215 L 199,210 L 201,208 L 208,208 L 208,176 L 207,175 L 207,171 L 210,168 L 216,168 L 217,169 L 218,168 L 218,164 L 220,162 L 229,162 L 229,155 L 230,154 L 239,154 L 239,149 L 241,147 L 247,147 L 247,123 L 241,123 L 239,121 L 239,89 L 230,89 L 228,87 L 228,84 L 229,83 L 219,83 L 218,82 L 218,75 L 210,75 L 210,82 L 209,83 L 202,83 L 202,87 L 200,89 L 193,89 L 193,101 L 192,102 L 173,102 L 172,101 L 172,89 L 163,89 L 162,88 L 162,83 L 155,83 L 153,81 L 153,75 Z" fill="black" />
  <path d="M 144,73 L 144,80 L 143,81 L 137,81 L 136,82 L 135,82 L 135,87 L 134,88 L 125,88 L 125,114 L 124,115 L 117,115 L 116,116 L 116,140 L 117,141 L 116,142 L 117,143 L 124,143 L 125,144 L 125,147 L 124,148 L 107,148 L 106,149 L 106,153 L 105,154 L 104,154 L 103,155 L 100,155 L 99,154 L 98,155 L 98,162 L 97,163 L 89,163 L 89,174 L 88,175 L 80,175 L 79,176 L 79,181 L 78,182 L 62,182 L 61,181 L 61,155 L 58,155 L 57,154 L 56,154 L 55,155 L 54,155 L 53,154 L 53,153 L 52,152 L 52,148 L 42,148 L 41,149 L 41,154 L 40,155 L 33,155 L 33,188 L 34,189 L 40,189 L 41,190 L 41,196 L 42,197 L 51,197 L 52,198 L 52,203 L 78,203 L 79,204 L 79,209 L 80,210 L 88,210 L 89,211 L 89,214 L 88,215 L 4,215 L 4,232 L 5,233 L 6,233 L 7,232 L 8,233 L 299,233 L 300,232 L 301,232 L 301,215 L 202,215 L 201,214 L 201,211 L 202,210 L 208,210 L 209,209 L 209,171 L 210,170 L 219,170 L 220,169 L 220,165 L 221,164 L 229,164 L 230,163 L 230,156 L 231,155 L 240,155 L 240,154 L 241,153 L 240,152 L 241,151 L 241,150 L 242,149 L 249,149 L 249,122 L 248,121 L 242,121 L 240,119 L 240,91 L 241,90 L 240,89 L 240,88 L 231,88 L 230,87 L 230,82 L 229,81 L 221,81 L 220,80 L 220,75 L 219,74 L 219,73 L 209,73 L 208,74 L 208,80 L 207,81 L 201,81 L 200,82 L 200,87 L 199,88 L 192,88 L 192,99 L 191,100 L 175,100 L 174,99 L 174,89 L 173,88 L 164,88 L 163,87 L 163,82 L 162,81 L 156,81 L 155,80 L 155,73 Z" fill="#FFFF00" />
</svg>
