<svg width="336" height="284" viewBox="0 0 336 284" xmlns="http://www.w3.org/2000/svg" shape-rendering="crispEdges">
  <path d="M 26,255 L 26,257 L 28,259 L 315,259 L 316,260 L 315,261 L 28,261 L 27,262 L 27,263 L 26,264 L 26,269 L 319,269 L 319,264 L 318,263 L 318,261 L 317,261 L 316,260 L 317,259 L 318,259 L 318,258 L 319,257 L 319,255 Z" fill="black" />
  <path d="M 173,56 L 173,61 L 172,62 L 171,62 L 170,63 L 168,63 L 167,62 L 163,62 L 162,63 L 162,67 L 160,69 L 154,69 L 154,94 L 152,96 L 145,96 L 146,97 L 146,100 L 145,101 L 145,116 L 146,117 L 146,121 L 145,122 L 145,136 L 146,137 L 146,148 L 144,150 L 133,150 L 133,155 L 132,156 L 113,156 L 112,155 L 112,150 L 105,150 L 104,149 L 104,137 L 106,135 L 112,135 L 112,130 L 113,129 L 122,129 L 122,104 L 113,104 L 112,103 L 112,96 L 106,96 L 106,102 L 104,104 L 95,104 L 95,122 L 94,123 L 87,123 L 87,130 L 86,131 L 77,131 L 76,132 L 76,169 L 86,169 L 87,170 L 87,181 L 93,181 L 95,183 L 95,209 L 93,211 L 87,211 L 87,223 L 94,223 L 95,224 L 95,229 L 143,229 L 143,225 L 145,223 L 152,223 L 152,218 L 153,217 L 160,217 L 160,210 L 161,209 L 168,209 L 169,208 L 170,209 L 170,204 L 172,202 L 189,202 L 189,198 L 191,196 L 198,196 L 198,191 L 199,190 L 216,190 L 216,183 L 218,181 L 262,181 L 262,177 L 264,175 L 273,175 L 273,165 L 264,165 L 262,163 L 262,156 L 247,156 L 246,155 L 246,143 L 247,142 L 254,142 L 254,137 L 256,135 L 262,135 L 262,131 L 264,129 L 273,129 L 273,104 L 263,104 L 262,103 L 262,69 L 256,69 L 254,67 L 254,63 L 247,63 L 246,62 L 246,61 L 245,60 L 245,56 L 237,56 L 237,61 L 235,63 L 229,63 L 229,67 L 227,69 L 219,69 L 219,81 L 217,83 L 198,83 L 197,82 L 197,69 L 191,69 L 189,67 L 189,63 L 188,62 L 183,62 L 182,63 L 181,63 L 179,61 L 179,56 Z" fill="black" />
  <path d="M 25,253 L 25,270 L 26,271 L 318,271 L 319,270 L 320,270 L 320,253 Z" fill="#FFFF00" />
  <path d="M 171,55 L 171,60 L 170,61 L 161,61 L 161,66 L 160,67 L 153,67 L 152,68 L 152,93 L 151,94 L 145,94 L 144,95 L 144,148 L 143,149 L 132,149 L 131,150 L 131,154 L 130,155 L 114,155 L 113,154 L 113,149 L 106,149 L 105,148 L 105,138 L 106,137 L 113,137 L 113,132 L 114,131 L 123,131 L 124,130 L 124,103 L 114,103 L 113,102 L 113,95 L 112,94 L 105,94 L 104,95 L 104,102 L 103,103 L 94,103 L 94,120 L 92,122 L 91,121 L 88,121 L 87,122 L 86,122 L 85,123 L 85,129 L 84,130 L 75,130 L 75,170 L 84,170 L 85,171 L 85,181 L 86,182 L 86,183 L 93,183 L 94,184 L 94,208 L 93,209 L 86,209 L 86,210 L 85,211 L 85,223 L 87,225 L 93,225 L 94,226 L 94,231 L 144,231 L 145,230 L 145,226 L 146,225 L 152,225 L 153,224 L 153,219 L 154,218 L 161,218 L 161,211 L 162,210 L 171,210 L 172,209 L 172,205 L 173,204 L 190,204 L 191,203 L 191,198 L 192,197 L 199,197 L 199,192 L 200,191 L 218,191 L 218,184 L 219,183 L 263,183 L 264,182 L 264,178 L 265,177 L 273,177 L 274,176 L 274,163 L 265,163 L 264,162 L 264,156 L 263,155 L 248,155 L 247,154 L 247,144 L 248,143 L 255,143 L 255,138 L 256,137 L 263,137 L 264,136 L 264,132 L 265,131 L 273,131 L 274,130 L 274,103 L 265,103 L 264,102 L 264,68 L 263,67 L 256,67 L 255,66 L 255,61 L 248,61 L 247,60 L 247,55 L 236,55 L 236,60 L 235,61 L 228,61 L 228,62 L 227,63 L 227,66 L 226,67 L 218,67 L 217,68 L 217,81 L 216,82 L 200,82 L 199,81 L 199,67 L 192,67 L 191,66 L 191,62 L 190,61 L 181,61 L 180,60 L 180,55 Z" fill="#FFFF00" />
</svg>
