<svg width="317" height="248" viewBox="0 0 317 248" xmlns="http://www.w3.org/2000/svg" shape-rendering="crispEdges">
  <path d="M 170,53 L 170,58 L 169,59 L 160,59 L 160,64 L 159,65 L 152,65 L 152,90 L 150,92 L 143,92 L 143,117 L 150,117 L 151,118 L 151,119 L 152,120 L 152,123 L 149,126 L 143,126 L 143,130 L 141,132 L 124,132 L 124,139 L 123,140 L 86,140 L 85,139 L 85,126 L 76,126 L 74,124 L 74,86 L 67,86 L 66,85 L 66,78 L 57,78 L 57,85 L 56,86 L 49,86 L 49,151 L 56,151 L 57,152 L 57,165 L 66,165 L 68,167 L 68,171 L 74,171 L 76,173 L 76,211 L 85,211 L 87,213 L 87,218 L 86,219 L 85,219 L 84,220 L 9,220 L 9,221 L 10,222 L 10,223 L 303,223 L 304,224 L 303,225 L 11,225 L 10,226 L 10,229 L 9,230 L 9,234 L 306,234 L 306,226 L 305,226 L 304,225 L 304,224 L 305,223 L 306,223 L 306,220 L 143,220 L 141,218 L 141,212 L 142,211 L 149,211 L 149,201 L 151,199 L 159,199 L 160,200 L 160,205 L 187,205 L 187,200 L 188,199 L 196,199 L 197,200 L 197,205 L 214,205 L 214,200 L 215,199 L 224,199 L 224,198 L 225,197 L 225,176 L 224,175 L 224,174 L 227,171 L 233,171 L 233,152 L 232,151 L 232,146 L 233,145 L 234,145 L 235,144 L 243,144 L 243,140 L 245,138 L 252,138 L 252,131 L 253,130 L 264,130 L 264,125 L 266,123 L 272,123 L 272,98 L 271,99 L 266,99 L 264,97 L 264,65 L 253,65 L 252,64 L 252,62 L 251,61 L 251,59 L 245,59 L 243,57 L 243,53 L 235,53 L 235,57 L 233,59 L 227,59 L 227,63 L 225,65 L 216,65 L 216,76 L 214,78 L 197,78 L 195,76 L 195,65 L 188,65 L 187,64 L 187,59 L 178,59 L 176,57 L 176,53 Z" fill="black" />
  <path d="M 169,51 L 169,56 L 168,57 L 159,57 L 158,58 L 158,63 L 157,64 L 150,64 L 150,90 L 149,91 L 142,91 L 142,118 L 143,119 L 149,119 L 150,120 L 150,123 L 149,124 L 142,124 L 142,129 L 141,130 L 123,130 L 123,138 L 122,139 L 87,139 L 86,138 L 86,124 L 77,124 L 76,123 L 76,86 L 75,85 L 75,84 L 68,84 L 67,83 L 67,76 L 57,76 L 56,77 L 56,83 L 55,84 L 49,84 L 48,85 L 48,152 L 55,152 L 56,153 L 56,166 L 57,167 L 65,167 L 66,168 L 66,171 L 67,172 L 67,173 L 74,173 L 75,174 L 75,213 L 84,213 L 85,214 L 85,217 L 84,218 L 9,218 L 8,219 L 8,235 L 9,236 L 306,236 L 307,235 L 307,218 L 143,218 L 142,217 L 142,214 L 143,213 L 150,213 L 151,212 L 151,201 L 152,200 L 157,200 L 158,201 L 158,206 L 188,206 L 188,201 L 189,200 L 195,200 L 196,201 L 196,206 L 215,206 L 215,203 L 216,202 L 216,201 L 217,200 L 225,200 L 226,199 L 226,174 L 227,173 L 234,173 L 234,147 L 235,146 L 244,146 L 245,145 L 245,140 L 246,139 L 247,139 L 248,140 L 251,140 L 252,139 L 253,139 L 253,132 L 254,131 L 265,131 L 266,130 L 266,126 L 267,125 L 273,125 L 274,124 L 274,97 L 267,97 L 266,96 L 266,64 L 254,64 L 253,63 L 253,58 L 252,57 L 246,57 L 245,56 L 245,51 L 234,51 L 234,56 L 233,57 L 226,57 L 225,58 L 225,62 L 223,64 L 215,64 L 215,75 L 214,76 L 198,76 L 197,75 L 197,64 L 189,64 L 188,63 L 188,58 L 187,57 L 179,57 L 178,56 L 178,52 L 177,51 Z" fill="#FFFF00" />
</svg>
